<svg width="194" height="125" viewBox="0 0 194 125" fill="none" xmlns="http://www.w3.org/2000/svg">
<rect x="1" y="64" width="43" height="43" fill="#707DFF" stroke="black" stroke-width="2"/>
<path d="M28.4212 51.5L57 2L85.5788 51.5H28.4212Z" fill="#FA877E" stroke="black" stroke-width="2"/>
<circle cx="77" cy="95" r="24" fill="#FFDA1F" stroke="black" stroke-width="2"/>
<path d="M104.64 115V96H108.24V115H104.64ZM108.24 104.16L106.88 103.56C106.88 101.133 107.44 99.2 108.56 97.76C109.68 96.32 111.293 95.6 113.4 95.6C114.36 95.6 115.227 95.7733 116 96.12C116.773 96.44 117.493 96.9867 118.16 97.76L115.8 100.2C115.4 99.7733 114.96 99.4667 114.48 99.28C114 99.0933 113.44 99 112.8 99C111.467 99 110.373 99.4267 109.52 100.28C108.667 101.133 108.24 102.427 108.24 104.16ZM123.537 115V88.04H127.137V115H123.537ZM118.857 99.28V96H131.817V99.28H118.857ZM148.783 115V103.92C148.783 102.48 148.33 101.293 147.423 100.36C146.516 99.4267 145.343 98.96 143.903 98.96C142.943 98.96 142.09 99.1733 141.343 99.6C140.596 100.027 140.01 100.613 139.583 101.36C139.156 102.107 138.943 102.96 138.943 103.92L137.463 103.08C137.463 101.64 137.783 100.36 138.423 99.24C139.063 98.12 139.956 97.24 141.103 96.6C142.25 95.9333 143.543 95.6 144.983 95.6C146.423 95.6 147.69 95.92 148.783 96.56C149.903 97.2 150.783 98.0933 151.423 99.24C152.063 100.387 152.383 101.707 152.383 103.2V115H148.783ZM135.343 115V86.44H138.943V115H135.343ZM165.937 115.4C164.071 115.4 162.391 114.96 160.897 114.08C159.404 113.2 158.217 112.013 157.337 110.52C156.457 109 156.017 107.307 156.017 105.44C156.017 103.6 156.457 101.947 157.337 100.48C158.217 98.9867 159.404 97.8 160.897 96.92C162.391 96.04 164.071 95.6 165.937 95.6C167.777 95.6 169.444 96.04 170.937 96.92C172.457 97.7733 173.657 98.9467 174.537 100.44C175.417 101.933 175.857 103.6 175.857 105.44C175.857 107.307 175.417 109 174.537 110.52C173.657 112.013 172.457 113.2 170.937 114.08C169.444 114.96 167.777 115.4 165.937 115.4ZM165.937 111.92C167.137 111.92 168.204 111.64 169.137 111.08C170.071 110.52 170.804 109.76 171.337 108.8C171.871 107.813 172.137 106.693 172.137 105.44C172.137 104.213 171.857 103.12 171.297 102.16C170.764 101.2 170.031 100.453 169.097 99.92C168.191 99.36 167.137 99.08 165.937 99.08C164.737 99.08 163.671 99.36 162.737 99.92C161.804 100.453 161.071 101.2 160.537 102.16C160.004 103.12 159.737 104.213 159.737 105.44C159.737 106.693 160.004 107.813 160.537 108.8C161.071 109.76 161.804 110.52 162.737 111.08C163.671 111.64 164.737 111.92 165.937 111.92Z" fill="black"/>
</svg>
